# xmcd
#
# Track frame offsets: 
#        150
#        22337
#        39377
#        51597
#        66370
#        81265
#        89807
#        105865
#        120137
#        129102
#        138877
#        151430
#        166875
#        179612
#        195345
#        213787
#        229395
#        248345
#        261670
#        276882
#
# Disc length: 3938 seconds
#
# Revision: 0
# Processed by: cddbd v1.5.2PL0 Copyright (c) Steve Scherf et al.
# Submitted via: ExactAudioCopyFreeDBPlugin 1.0
#
DISCID=170f6014
DTITLE=LOUISIANA RED - Louisiana Red Sings The Deep Blues
DYEAR=1993
DGENRE=Blues
TTITLE0=Augusta,GA
TTITLE1=Rollin' and Tumblin'
TTITLE2=Worried Life Blues
TTITLE3=Red's Dream
TTITLE4=Hit By A Fallin' Tree
TTITLE5=Hide-A-Way (Instrumental)
TTITLE6=Standin' by The Airport
TTITLE7=Rollin' Stone
TTITLE8=You Don't Have To Go
TTITLE9=I Am Louisiana Red
TTITLE10=Mean Ol' Frisco
TTITLE11=Story Of Louisiana Red
TTITLE12=Who 'Dat?
TTITLE13=Freight Train To Ride
TTITLE14=Wo-Ho-Ho,Baby
TTITLE15=Early In The Morning
TTITLE16=Where Is My Friend?
TTITLE17=Country Playboy
TTITLE18=You Gonna Need Me
TTITLE19=I'm Goin' Down South
EXTD=
EXTT0=
EXTT1=
EXTT2=
EXTT3=
EXTT4=
EXTT5=
EXTT6=
EXTT7=
EXTT8=
EXTT9=
EXTT10=
EXTT11=
EXTT12=
EXTT13=
EXTT14=
EXTT15=
EXTT16=
EXTT17=
EXTT18=
EXTT19=
PLAYORDER=
